<?xml version="1.0" standalone="no"?>
<!DOCTYPE svg PUBLIC "-//W3C//DTD SVG 20010904//EN"
 "http://www.w3.org/TR/2001/REC-SVG-20010904/DTD/svg10.dtd">
<svg version="1.0" xmlns="http://www.w3.org/2000/svg"
 width="406.000000pt" height="416.000000pt" viewBox="0 0 406.000000 416.000000"
 preserveAspectRatio="xMidYMid meet">

<g transform="translate(0.000000,416.000000) scale(0.100000,-0.100000)"
fill="#000000" stroke="none">
<path d="M619 3929 c-16 -17 -29 -39 -29 -50 0 -10 -5 -31 -11 -46 -6 -15 -15
-37 -20 -48 -4 -11 -11 -38 -14 -60 -8 -48 -28 -87 -57 -114 -30 -28 -115 -55
-166 -52 -26 1 -54 -5 -72 -16 -26 -15 -30 -23 -30 -60 0 -55 19 -67 129 -83
98 -13 157 -42 165 -80 3 -14 8 -79 11 -145 8 -153 9 -159 40 -173 62 -29 93
-6 101 74 3 33 10 71 16 86 5 14 7 35 4 45 -8 25 20 80 56 113 32 29 87 46
175 54 79 7 103 21 103 61 0 55 -20 77 -90 102 -85 30 -139 70 -169 123 -20
35 -25 63 -31 153 -6 98 -9 112 -29 128 -32 26 -48 24 -82 -12z m71 -396 c38
-36 47 -50 39 -60 -7 -7 -17 -13 -24 -13 -8 0 -25 -14 -38 -31 l-25 -32 -35
39 c-19 22 -36 42 -38 45 -4 7 59 99 67 99 2 0 27 -21 54 -47z"/>
<path d="M1875 3598 c-44 -5 -96 -16 -115 -23 -19 -8 -51 -17 -70 -21 -19 -4
-53 -15 -75 -25 -22 -9 -71 -30 -110 -46 -70 -28 -195 -99 -255 -144 -18 -13
-71 -63 -119 -110 -48 -48 -98 -89 -114 -93 -15 -3 -31 -14 -34 -24 -21 -59
-50 -113 -82 -152 -21 -25 -49 -63 -64 -86 -25 -40 -27 -41 -94 -47 -37 -4
-84 -7 -103 -7 -19 0 -52 -9 -73 -20 -20 -11 -41 -20 -46 -20 -21 0 -142 -93
-179 -138 -97 -115 -130 -297 -80 -435 23 -63 89 -189 115 -219 15 -17 11 -43
-20 -118 -14 -35 -26 -93 -36 -175 -14 -109 17 -261 76 -373 25 -48 60 -105
77 -127 17 -22 39 -52 48 -66 9 -15 47 -48 84 -74 112 -78 210 -123 326 -149
25 -6 27 -9 21 -39 -3 -17 -12 -44 -19 -59 -8 -15 -14 -38 -14 -52 0 -13 -8
-44 -19 -68 -16 -39 -17 -48 -5 -76 16 -38 56 -52 93 -31 29 16 67 86 76 139
3 19 11 52 17 73 10 33 15 37 44 37 18 0 56 -9 84 -20 31 -12 80 -21 126 -22
65 -3 78 0 90 16 16 23 19 82 4 91 -10 6 -97 31 -160 45 -82 19 -158 42 -198
61 -44 20 -93 37 -172 59 -25 6 -54 17 -65 23 -11 6 -33 17 -50 25 -32 16
-107 66 -138 92 -60 49 -164 248 -174 330 -3 30 -10 60 -14 66 -5 6 -6 13 -3
17 3 3 9 45 13 94 6 75 15 104 51 183 60 130 99 193 180 291 39 46 70 87 70
92 0 16 27 5 53 -23 34 -35 42 -36 85 -10 25 15 32 27 32 50 0 37 -19 77 -50
105 -45 41 -54 115 -24 206 20 60 106 224 118 224 4 0 19 -28 32 -63 27 -71
48 -103 116 -173 62 -64 186 -118 289 -126 52 -4 57 -7 82 -46 91 -142 102
-150 196 -151 59 -1 76 4 150 40 l83 42 56 -22 c88 -34 118 -37 208 -21 71 14
95 24 169 73 76 50 93 67 145 144 43 65 60 101 65 137 9 66 1 86 -43 107 -33
16 -70 18 -362 20 -304 1 -380 6 -380 23 0 9 -90 51 -111 52 -8 0 -39 13 -69
29 -30 16 -71 37 -90 46 -19 9 -42 20 -50 25 -8 5 -31 16 -50 25 -80 35 -167
79 -192 98 l-28 19 45 41 c87 79 155 125 275 183 139 68 349 136 387 127 11
-3 29 -1 40 4 22 12 334 -10 378 -26 17 -7 67 -23 112 -37 45 -15 86 -32 93
-39 6 -8 32 -23 59 -35 27 -11 51 -27 55 -36 3 -8 10 -15 16 -15 35 0 275
-213 321 -285 14 -22 45 -69 68 -104 22 -35 41 -68 41 -75 0 -6 12 -33 26 -61
14 -27 28 -63 30 -80 2 -16 11 -52 20 -78 9 -27 14 -50 12 -53 -3 -2 -36 -6
-74 -9 -130 -10 -174 -29 -190 -83 -10 -36 -6 -53 17 -77 17 -17 23 -18 71 -7
96 23 93 24 94 -38 2 -81 -26 -177 -70 -245 -22 -33 -45 -64 -51 -70 -18 -15
-45 -72 -45 -94 0 -20 132 -161 150 -161 12 0 60 -60 60 -75 0 -7 7 -18 16
-26 8 -7 27 -35 40 -62 23 -45 24 -50 10 -66 -22 -25 -20 -67 5 -92 27 -27 76
-21 166 23 35 17 67 27 71 23 4 -3 6 -50 4 -103 -3 -105 -22 -174 -67 -239
-79 -117 -76 -113 -146 -173 -101 -87 -201 -130 -364 -157 -206 -34 -865 -20
-1138 23 -112 18 -140 14 -163 -21 -14 -22 -14 -27 1 -58 20 -42 43 -54 120
-62 33 -3 71 -8 85 -10 73 -11 387 -35 461 -35 l85 0 23 -102 c25 -110 36
-129 82 -148 24 -10 33 -10 54 4 35 23 40 55 20 141 -9 42 -15 82 -12 88 3 8
29 12 78 11 41 -1 97 3 124 7 28 5 97 11 155 13 63 3 120 11 142 20 21 9 46
16 56 16 29 0 254 117 272 142 3 4 42 45 86 91 89 93 154 203 174 298 17 78
26 211 18 256 -5 21 -11 52 -14 68 -5 26 2 38 48 90 182 206 226 387 138 580
-31 68 -213 244 -253 245 -5 0 -38 13 -74 30 -35 17 -75 30 -87 30 -18 0 -26
9 -36 43 -8 23 -15 51 -16 62 -14 110 -57 206 -164 365 -20 30 -47 74 -58 96
-12 23 -38 58 -59 77 -21 19 -67 63 -103 97 -53 51 -188 151 -246 183 -8 4
-22 12 -31 17 -10 6 -25 13 -33 16 -8 3 -49 19 -90 36 -41 17 -93 37 -115 45
-22 7 -49 18 -60 23 -47 21 -348 33 -470 18z m-1145 -918 c4 0 1 -33 -8 -72
-8 -40 -14 -99 -13 -131 l2 -57 -83 -93 c-46 -50 -101 -120 -121 -155 -21 -34
-40 -62 -42 -62 -4 0 -49 97 -65 140 -36 96 -10 234 57 302 79 81 203 146 251
132 8 -2 17 -4 22 -4z m1041 -174 c34 -52 35 -54 16 -66 -11 -6 -37 -18 -57
-25 -35 -12 -39 -12 -57 8 -24 29 -43 64 -43 79 1 17 59 56 85 57 14 1 32 -16
56 -53z m1576 -138 c37 -46 13 -229 -44 -344 -22 -44 -12 -70 53 -139 65 -70
124 -156 124 -183 0 -21 -107 -104 -129 -100 -7 2 -22 26 -33 53 -10 28 -25
55 -32 60 -6 6 -32 37 -56 70 -25 33 -51 64 -59 69 -8 5 -30 24 -50 41 l-35
33 32 36 c18 20 32 41 32 46 0 5 13 37 29 72 31 65 51 162 51 240 0 24 3 48 7
51 11 12 100 7 110 -5z m225 -132 c76 -77 83 -91 92 -167 5 -41 3 -72 -9 -110
-27 -87 -46 -133 -58 -141 -6 -3 -27 18 -50 50 -22 31 -43 58 -48 60 -4 2 -19
19 -34 38 -20 26 -24 38 -16 48 19 22 53 168 52 219 -1 60 13 61 71 3z"/>
<path d="M2634 2229 c-41 -32 -104 -105 -104 -121 0 -18 21 -48 40 -58 29 -16
111 27 171 90 35 37 37 63 4 95 -32 33 -64 31 -111 -6z"/>
<path d="M985 2145 c-35 -34 -31 -55 18 -117 24 -29 49 -63 56 -75 16 -31 75
-41 101 -18 25 23 26 86 3 123 -23 35 -75 87 -101 101 -31 17 -50 13 -77 -14z"/>
<path d="M1506 2024 c-9 -8 -21 -24 -26 -35 -7 -13 -22 -19 -43 -19 -18 0 -52
-9 -76 -20 -24 -11 -53 -20 -66 -20 -24 0 -67 -37 -103 -87 -24 -35 -31 -128
-11 -164 21 -40 110 -118 154 -135 29 -11 45 -23 45 -34 0 -20 -22 -133 -26
-139 -4 -4 -18 2 -117 51 l-47 23 -37 -20 c-42 -23 -56 -53 -40 -84 14 -27 35
-39 142 -84 l80 -33 5 -53 c6 -59 34 -90 82 -91 32 0 84 60 74 85 -5 13 0 15
32 9 47 -8 50 -11 54 -59 3 -35 8 -43 40 -60 l37 -20 28 21 c20 15 29 32 33
60 l5 39 78 12 c88 13 124 36 155 98 25 50 18 111 -21 173 -27 42 -91 96 -129
108 -18 5 -20 11 -13 53 4 25 8 64 9 86 3 67 27 82 76 48 64 -46 127 -47 150
-3 9 17 7 29 -7 58 -14 30 -34 45 -98 78 -78 41 -80 43 -80 79 0 29 -6 42 -26
57 -25 19 -28 19 -59 3 -18 -9 -35 -25 -37 -36 -7 -24 -33 -32 -78 -23 -31 6
-35 10 -35 38 0 18 -5 37 -12 44 -17 17 -74 15 -92 -4z m-66 -226 c0 -18 -26
-107 -36 -126 -5 -10 -77 45 -85 65 -11 31 -7 38 39 63 52 27 82 26 82 -2z
m231 -5 c4 -4 4 -26 -1 -48 -5 -22 -12 -61 -15 -87 l-6 -47 -37 6 c-54 8 -62
20 -50 73 5 25 12 62 15 84 l5 38 40 -5 c22 -3 44 -9 49 -14z m-80 -319 l36
-6 -10 -47 c-5 -25 -9 -58 -9 -73 -1 -27 -3 -28 -51 -28 l-50 0 8 72 c9 97 6
93 76 82z m228 -111 c6 -13 11 -28 11 -32 0 -9 -53 -31 -73 -31 -9 0 -1 85 9
102 8 12 42 -14 53 -39z"/>
<path d="M2320 1945 c-56 -29 -110 -79 -110 -100 0 -28 19 -54 51 -70 29 -16
32 -15 87 16 31 17 65 38 74 47 27 23 33 77 14 107 -21 32 -56 32 -116 0z"/>
</g>
</svg>
