<?xml version="1.0" standalone="no"?>
<!DOCTYPE svg PUBLIC "-//W3C//DTD SVG 20010904//EN"
 "http://www.w3.org/TR/2001/REC-SVG-20010904/DTD/svg10.dtd">
<svg version="1.0" xmlns="http://www.w3.org/2000/svg"
 width="276.000000pt" height="480.000000pt" viewBox="0 0 276.000000 480.000000"
 preserveAspectRatio="xMidYMid meet">

<g transform="translate(0.000000,480.000000) scale(0.100000,-0.100000)"
fill="#000000" stroke="none">
<path d="M1882 4430 c-18 -11 -37 -32 -43 -47 -6 -16 -19 -46 -29 -68 -9 -22
-27 -69 -40 -105 -12 -36 -26 -74 -30 -85 -5 -11 -12 -42 -15 -70 -4 -27 -11
-58 -17 -68 -12 -23 -38 -18 -132 29 -39 19 -77 34 -86 34 -25 0 -60 -43 -60
-74 0 -31 40 -76 67 -76 11 0 35 -9 56 -19 20 -10 49 -22 64 -26 l28 -8 -30
-13 c-16 -7 -42 -13 -58 -14 -44 0 -176 -38 -244 -70 -92 -42 -141 -79 -251
-188 -99 -98 -222 -268 -278 -384 -14 -29 -32 -64 -39 -78 -40 -77 -105 -220
-115 -255 -6 -22 -15 -49 -20 -60 -17 -40 -30 -89 -30 -112 0 -13 -13 -50 -29
-81 -16 -32 -41 -91 -54 -132 -14 -41 -35 -100 -47 -130 -12 -30 -32 -89 -45
-130 -12 -41 -29 -93 -38 -115 -8 -22 -19 -62 -25 -90 -12 -56 -45 -188 -73
-285 -10 -36 -21 -99 -25 -140 -4 -41 -12 -88 -20 -105 -25 -58 -35 -254 -23
-420 11 -131 38 -240 73 -295 13 -19 26 -47 29 -61 4 -14 20 -43 37 -64 16
-21 30 -41 30 -45 0 -14 154 -158 223 -209 114 -83 264 -107 287 -45 12 31
-11 81 -43 93 -12 5 -54 21 -94 35 -74 28 -91 41 -195 144 -61 61 -91 104
-141 207 -74 151 -89 356 -46 610 11 66 23 140 26 165 3 25 9 50 14 56 5 6 13
37 18 70 5 32 13 73 19 89 19 56 50 170 57 210 4 22 10 45 14 50 5 6 18 48 30
95 12 47 28 99 36 115 28 60 124 311 140 370 9 33 25 83 36 110 10 28 21 64
25 80 4 17 21 57 39 90 33 62 41 79 66 130 15 30 43 86 82 160 11 22 28 49 38
60 10 11 46 57 79 103 34 45 65 82 68 82 4 0 41 32 82 70 41 38 81 70 88 70 7
0 43 15 80 34 116 60 268 78 415 52 50 -10 104 -24 119 -32 14 -8 34 -14 43
-14 10 0 40 -13 67 -30 26 -16 52 -30 56 -30 11 0 85 -72 115 -112 58 -77 84
-140 90 -223 3 -44 11 -95 18 -114 18 -50 5 -240 -26 -413 -15 -81 -25 -159
-21 -173 4 -15 17 -30 32 -35 54 -21 124 45 124 117 0 27 15 127 30 203 16 79
21 223 10 295 -5 39 -15 107 -21 153 -13 109 -66 215 -147 298 -37 37 -22 48
20 14 30 -23 103 -50 139 -50 32 0 59 28 59 62 0 30 -39 78 -64 78 -10 0 -44
14 -76 31 -57 30 -58 32 -47 58 6 14 16 33 22 41 16 20 46 81 78 155 14 33 33
77 42 98 39 90 24 210 -30 239 -13 7 -55 30 -94 51 -38 20 -78 37 -88 37 -10
0 -33 9 -51 20 -18 11 -47 20 -65 20 -18 0 -42 7 -53 15 -31 23 -170 20 -212
-5z"/>
<path d="M1224 3323 c-35 -17 -64 -60 -64 -95 0 -38 73 -98 118 -98 11 0 34
16 51 35 50 57 39 110 -33 154 -39 24 -33 24 -72 4z"/>
<path d="M1952 3097 c-18 -18 -32 -42 -32 -54 0 -34 33 -82 64 -93 46 -16 63
-12 101 21 47 42 47 79 1 125 -46 46 -90 47 -134 1z"/>
<path d="M1372 3097 c-26 -28 -28 -71 -4 -92 82 -74 112 -90 202 -115 25 -7
57 -17 72 -22 41 -15 178 -2 208 20 33 25 38 74 11 101 -18 18 -34 21 -104 21
-91 0 -205 33 -284 83 -52 33 -73 34 -101 4z"/>
<path d="M1370 2594 c-14 -3 -39 -12 -57 -20 -17 -8 -35 -14 -41 -14 -33 0
-128 -59 -184 -114 -61 -59 -66 -67 -76 -126 -14 -77 -1 -113 60 -171 64 -60
169 -100 312 -119 102 -14 215 -1 271 30 18 10 43 24 56 32 122 68 181 199
103 228 -36 14 -91 -6 -111 -41 -21 -36 -93 -85 -142 -99 -20 -5 -67 -10 -106
-10 -123 -2 -306 68 -305 118 1 49 129 134 229 152 36 6 92 9 130 5 63 -6 235
-58 256 -76 25 -24 97 8 107 49 11 39 -17 79 -69 97 -26 9 -64 23 -83 30 -19
8 -53 17 -75 20 -22 4 -62 11 -90 16 -71 12 -156 18 -185 13z"/>
<path d="M2291 2414 c-38 -32 -49 -51 -61 -106 -5 -24 -21 -77 -35 -118 -15
-41 -31 -101 -36 -133 -5 -32 -14 -66 -18 -75 -9 -16 -37 -109 -61 -202 -7
-25 -16 -58 -21 -74 -5 -16 -9 -42 -9 -59 0 -16 -8 -48 -19 -71 -28 -62 -39
-104 -47 -176 -4 -36 -12 -76 -19 -90 -7 -14 -16 -44 -20 -68 -4 -24 -13 -55
-21 -70 -7 -14 -11 -29 -8 -34 3 -5 -5 -37 -19 -71 -14 -34 -44 -109 -67 -167
-23 -58 -49 -125 -58 -150 -8 -25 -27 -61 -42 -80 -15 -19 -30 -45 -34 -58
-26 -83 -257 -228 -395 -248 -26 -4 -62 -13 -81 -20 -19 -8 -59 -16 -89 -17
-90 -6 -113 -56 -53 -120 28 -30 59 -34 127 -16 22 6 69 16 105 23 143 28 246
76 376 173 89 67 142 143 224 323 17 36 37 78 45 93 8 16 15 36 15 45 0 8 8
34 19 56 23 51 51 139 51 163 0 10 9 33 20 51 11 18 20 45 20 61 0 16 7 45 15
64 8 20 18 62 21 94 4 32 12 69 19 83 7 14 15 44 19 67 3 24 12 57 20 75 15
34 42 140 56 219 5 26 21 84 35 130 15 46 33 109 40 139 26 107 33 131 49 155
9 14 22 65 27 112 11 84 10 88 -11 105 -30 24 -43 23 -79 -8z"/>
<path d="M1165 1851 c-82 -7 -168 -32 -196 -57 -8 -8 -20 -14 -25 -14 -6 0
-36 -25 -67 -55 -59 -57 -97 -118 -97 -156 0 -63 89 -140 261 -226 106 -52
108 -53 199 -53 82 0 101 4 187 38 119 47 223 126 223 171 0 32 -31 77 -60 86
-11 3 -29 1 -40 -5 -23 -12 -80 -69 -80 -79 0 -8 -76 -41 -93 -41 -7 0 -17 -4
-22 -9 -15 -14 -144 -15 -193 -2 -24 7 -63 22 -85 33 -49 25 -137 89 -137 100
0 30 143 112 215 123 22 3 47 8 56 11 38 11 217 -15 306 -45 108 -36 126 -38
153 -11 30 30 25 63 -16 100 -87 76 -267 110 -489 91z"/>
<path d="M1045 1139 c-95 -6 -160 -21 -215 -51 -79 -41 -170 -149 -170 -200 0
-46 84 -168 116 -168 6 0 17 -7 24 -15 20 -25 162 -83 205 -85 11 -1 60 -3
109 -5 65 -3 96 0 117 10 15 8 41 15 56 15 35 0 107 51 162 113 46 54 50 73
20 111 -34 44 -74 36 -141 -28 -76 -73 -168 -99 -270 -76 -125 28 -163 43
-205 83 -41 39 -41 40 -25 63 9 13 22 24 28 24 6 0 19 8 28 19 38 42 279 68
356 38 14 -5 41 -11 60 -13 19 -2 49 -7 67 -10 72 -14 116 103 50 134 -30 14
-115 30 -206 38 -29 2 -56 6 -60 7 -3 2 -51 0 -106 -4z"/>
</g>
</svg>
