<?xml version="1.0" standalone="no"?>
<!DOCTYPE svg PUBLIC "-//W3C//DTD SVG 20010904//EN"
 "http://www.w3.org/TR/2001/REC-SVG-20010904/DTD/svg10.dtd">
<svg version="1.0" xmlns="http://www.w3.org/2000/svg"
 width="516.000000pt" height="454.000000pt" viewBox="0 0 516.000000 454.000000"
 preserveAspectRatio="xMidYMid meet">

<g transform="translate(0.000000,454.000000) scale(0.100000,-0.100000)"
fill="#000000" stroke="none">
<path d="M4180 4132 l-35 -17 -1 -85 c-1 -90 -17 -163 -43 -194 -17 -19 -102
-66 -121 -66 -6 0 -36 -12 -66 -26 -59 -28 -75 -55 -53 -96 19 -36 40 -47 87
-48 115 -1 242 -131 242 -250 0 -37 36 -72 70 -68 37 5 66 56 79 145 7 47 20
90 33 108 21 32 99 78 151 91 48 11 91 79 69 109 -21 29 -106 58 -164 57 -24
-1 -72 49 -97 101 -14 29 -21 65 -22 113 -2 82 -8 96 -53 123 -40 25 -33 25
-76 3z m70 -376 c0 -8 16 -23 35 -35 19 -11 35 -26 35 -33 -1 -7 -18 -33 -40
-57 l-38 -44 -44 41 c-23 23 -49 42 -55 42 -7 0 -13 5 -13 10 0 6 4 10 8 10 5
0 26 18 48 40 40 41 64 51 64 26z"/>
<path d="M2545 3969 c-38 -10 -88 -23 -110 -28 -40 -9 -56 -15 -229 -86 -89
-36 -97 -41 -196 -103 -88 -56 -261 -214 -309 -280 -13 -19 -39 -50 -57 -70
-32 -35 -154 -264 -154 -290 0 -6 -11 -35 -23 -64 -13 -29 -26 -80 -30 -112
-3 -33 -12 -64 -19 -71 -7 -6 -40 -20 -73 -30 -33 -11 -68 -26 -78 -34 -10 -8
-32 -20 -50 -26 -45 -16 -227 -124 -227 -136 0 -5 -6 -9 -12 -9 -28 -1 -193
-185 -233 -259 -61 -113 -119 -239 -128 -276 -34 -153 -38 -225 -23 -396 10
-108 39 -195 103 -309 41 -72 73 -106 199 -213 108 -92 341 -233 464 -281 192
-75 243 -91 342 -107 43 -6 78 -16 78 -21 0 -6 -18 -52 -41 -103 -40 -90 -40
-93 -25 -123 18 -35 44 -52 79 -52 27 0 57 28 57 53 0 10 4 25 10 35 5 9 17
33 25 52 33 73 56 110 68 110 6 0 35 -7 62 -16 55 -16 107 -21 357 -29 169 -5
270 3 478 40 47 9 118 20 159 25 95 12 81 25 188 -180 22 -44 49 -81 65 -89
23 -13 28 -13 53 3 26 17 27 21 22 75 -6 64 -40 153 -74 194 -27 33 -24 42 14
52 15 3 46 15 70 26 23 10 46 19 52 19 5 0 52 20 103 44 51 23 109 49 128 56
19 7 42 19 51 27 8 7 18 13 21 13 15 0 161 90 233 144 110 82 169 145 246 261
92 137 103 162 140 314 16 65 17 92 9 230 -6 86 -14 174 -19 196 -10 38 -8 41
47 108 97 117 128 179 158 307 15 68 18 230 5 259 -5 9 -19 47 -31 86 -39 115
-119 206 -208 235 -50 16 -123 18 -208 7 l-62 -9 -27 59 c-15 32 -33 74 -40
94 -32 89 -242 347 -313 386 -13 7 -49 32 -81 57 -32 24 -69 50 -82 57 -13 7
-40 24 -59 39 -62 47 -264 120 -333 120 -21 0 -49 7 -63 17 -40 26 -372 27
-469 2z m410 -139 c11 -5 41 -11 67 -14 56 -7 268 -76 283 -92 6 -6 30 -22 55
-35 25 -13 63 -38 85 -55 22 -16 52 -38 67 -47 48 -30 218 -199 218 -216 0
-10 10 -27 23 -39 13 -12 38 -54 56 -94 49 -105 103 -220 114 -243 21 -41 56
-257 59 -358 1 -51 8 -71 49 -145 27 -48 49 -92 49 -98 0 -7 7 -25 15 -40 8
-16 15 -37 15 -46 0 -9 4 -27 9 -40 5 -13 18 -45 29 -73 43 -107 55 -412 19
-484 -9 -19 -17 -44 -17 -55 0 -30 -54 -130 -116 -213 -63 -84 -84 -106 -148
-153 -26 -19 -60 -45 -76 -58 -15 -12 -31 -22 -35 -22 -4 0 -40 -22 -81 -49
-40 -27 -83 -52 -95 -56 -11 -4 -65 -29 -120 -56 -55 -27 -104 -49 -110 -49
-5 0 -51 -14 -102 -31 -96 -32 -128 -39 -292 -64 -55 -8 -111 -19 -125 -24
-14 -5 -65 -14 -115 -21 -49 -6 -116 -15 -148 -20 -32 -5 -63 -7 -70 -5 -7 2
-82 7 -167 10 -191 7 -258 12 -335 24 -107 18 -215 40 -227 47 -6 4 -41 12
-77 19 -36 7 -105 24 -153 38 -100 31 -354 155 -414 204 -23 18 -44 33 -47 33
-16 0 -156 117 -189 158 -21 26 -49 60 -63 76 -14 16 -25 32 -25 36 0 4 -9 15
-19 24 -10 9 -21 29 -25 44 -3 15 -15 68 -26 117 -30 126 -23 312 16 423 14
43 32 84 39 92 7 8 29 46 49 84 21 38 50 84 66 102 15 18 31 42 35 53 3 12 10
21 14 21 4 0 25 17 47 39 37 36 154 121 168 121 3 0 59 25 123 56 94 44 123
54 149 49 25 -4 38 0 60 19 29 24 30 28 66 191 6 28 19 72 29 99 11 27 19 54
19 60 0 15 39 91 73 143 15 24 27 47 27 52 0 25 188 230 270 294 122 94 194
134 365 201 101 39 182 61 270 73 73 10 292 5 320 -7z"/>
<path d="M3558 3069 c-21 -10 -42 -28 -48 -38 -24 -45 -1 -139 39 -161 12 -6
43 -10 68 -8 42 3 51 7 80 46 18 24 33 53 33 65 0 32 -48 94 -82 106 -40 14
-46 14 -90 -10z"/>
<path d="M3056 3049 c-53 -13 -156 -63 -185 -90 -26 -24 -60 -94 -61 -123 0
-10 16 -41 35 -67 19 -27 35 -53 35 -58 0 -5 -17 -15 -37 -22 -21 -6 -40 -15
-43 -19 -3 -4 -25 -17 -49 -30 -96 -48 -149 -91 -165 -131 -18 -43 -21 -115
-7 -124 9 -5 25 -36 110 -214 17 -35 31 -70 31 -77 0 -8 11 -47 25 -88 14 -41
25 -85 25 -98 0 -13 5 -29 12 -36 6 -6 15 -35 20 -64 10 -60 24 -137 34 -186
3 -18 10 -35 15 -38 5 -3 9 -16 9 -28 0 -26 26 -120 41 -148 5 -10 9 -28 9
-41 0 -50 48 -97 101 -97 41 0 263 53 291 70 10 5 33 10 51 10 18 0 41 6 52
14 11 7 54 17 95 21 41 4 81 11 90 16 8 4 29 12 45 18 17 5 55 19 85 30 30 12
62 21 71 21 23 0 81 70 90 110 8 36 -7 296 -19 314 -3 6 -7 29 -8 51 -6 112
-63 359 -104 450 -19 43 -41 95 -91 218 -17 43 -37 84 -45 92 -8 7 -14 17 -14
22 0 11 -34 55 -77 100 -30 32 -36 34 -75 28 l-43 -6 -1 43 c-3 85 -78 161
-157 157 -17 -1 -59 1 -92 4 -33 3 -77 2 -99 -4z m174 -145 c8 -1 19 -3 24 -3
4 -1 5 -9 1 -18 -4 -10 -8 -28 -9 -39 -4 -30 -63 -131 -81 -138 -8 -3 -23 -2
-32 1 -23 8 -122 84 -147 112 -18 20 -18 23 -3 38 9 9 40 27 69 39 51 22 94
24 178 8z m239 -216 c11 -18 30 -46 41 -63 11 -16 20 -38 20 -49 0 -10 9 -33
19 -50 11 -17 26 -53 34 -81 8 -27 25 -69 37 -92 12 -24 24 -61 27 -82 5 -37
3 -41 -21 -47 -24 -6 -34 1 -79 49 -29 30 -70 62 -92 71 -44 19 -95 15 -115
-9 -7 -8 -19 -15 -26 -15 -30 0 -54 -61 -54 -137 l0 -72 -32 -9 c-18 -5 -36
-7 -40 -5 -3 2 -4 36 -1 76 5 67 4 73 -20 95 -32 30 -73 26 -99 -8 -14 -19
-19 -48 -23 -118 -4 -87 -6 -94 -35 -123 -41 -41 -40 -80 1 -110 26 -18 34
-20 56 -10 23 11 29 7 77 -39 28 -27 59 -50 68 -50 9 0 20 -4 23 -10 10 -16
78 -11 110 8 40 25 74 96 76 160 2 46 5 54 30 66 34 17 43 10 47 -34 3 -43 37
-80 73 -80 41 0 53 23 55 104 1 67 2 71 27 80 18 7 31 6 38 -1 6 -6 17 -58 25
-115 7 -56 18 -119 24 -138 5 -19 10 -83 10 -142 0 -96 -2 -108 -17 -108 -10
0 -40 -12 -68 -26 -27 -14 -68 -30 -90 -34 -138 -29 -267 -60 -315 -75 -30 -9
-77 -22 -105 -27 -27 -6 -58 -14 -67 -19 -36 -18 -56 -11 -61 24 -5 32 -12 57
-42 157 -9 30 -20 80 -25 110 -5 30 -16 80 -25 110 -8 30 -18 73 -21 95 -3 22
-12 54 -19 70 -7 17 -21 57 -30 90 -10 33 -22 76 -28 95 -6 19 -37 89 -69 154
-55 113 -58 120 -43 142 9 13 23 24 33 24 10 0 36 13 58 29 22 16 64 39 94 51
30 12 59 26 64 31 17 15 49 10 98 -16 26 -14 64 -25 84 -25 36 0 134 45 134
62 0 4 10 24 23 43 16 25 33 37 62 44 64 14 72 13 94 -21z m-41 -495 c-2 -10
-10 -18 -18 -18 -8 0 -16 8 -18 18 -2 12 3 17 18 17 15 0 20 -5 18 -17z m-144
-232 c3 -5 -1 -14 -9 -21 -12 -10 -18 -10 -30 0 -18 15 -11 30 15 30 10 0 21
-4 24 -9z"/>
<path d="M2256 2955 c-22 -11 -32 -51 -22 -90 8 -30 44 -42 145 -50 54 -4 107
-15 146 -30 77 -31 80 -31 110 1 80 86 -48 169 -269 176 -49 2 -99 -2 -110 -7z"/>
<path d="M1440 2250 c-25 -25 -25 -39 1 -94 19 -41 94 -126 110 -126 4 0 26
-16 49 -35 23 -19 53 -35 66 -35 42 0 63 -32 63 -97 -1 -99 40 -215 103 -295
22 -28 22 -28 2 -43 -10 -8 -30 -17 -44 -20 -14 -3 -64 -17 -111 -30 -98 -28
-141 -31 -158 -11 -7 8 -16 42 -22 76 -8 51 -7 72 6 108 19 58 20 141 0 169
-8 12 -38 29 -65 38 -68 23 -91 42 -187 158 -30 37 -66 70 -80 73 -31 8 -73
-29 -73 -65 0 -48 207 -281 249 -281 5 0 16 -7 25 -15 13 -14 13 -21 -4 -71
-18 -52 -20 -117 -4 -166 4 -13 0 -18 -15 -18 -11 0 -22 4 -25 8 -3 5 -31 14
-63 21 -115 25 -210 118 -254 249 -16 48 -27 66 -46 73 -33 12 -66 -8 -89 -56
-15 -32 -15 -38 0 -75 9 -22 16 -48 16 -56 0 -38 145 -196 205 -223 115 -53
197 -80 279 -93 168 -26 242 -18 429 43 136 45 145 49 210 98 124 93 213 333
195 529 -7 83 -23 108 -74 118 -24 4 -42 1 -60 -11 -25 -16 -26 -20 -18 -64 4
-25 8 -82 8 -126 0 -80 -16 -136 -69 -242 -24 -48 -36 -44 -81 32 -50 85 -57
117 -55 260 1 69 -8 92 -43 109 -19 9 -46 16 -60 16 -45 0 -101 36 -179 115
-78 80 -102 90 -137 55z"/>
</g>
</svg>
