<?xml version="1.0" standalone="no"?>
<!DOCTYPE svg PUBLIC "-//W3C//DTD SVG 20010904//EN"
 "http://www.w3.org/TR/2001/REC-SVG-20010904/DTD/svg10.dtd">
<svg version="1.0" xmlns="http://www.w3.org/2000/svg"
 width="368.000000pt" height="332.000000pt" viewBox="0 0 368.000000 332.000000"
 preserveAspectRatio="xMidYMid meet">

<g transform="translate(0.000000,332.000000) scale(0.100000,-0.100000)"
fill="#000000" stroke="none">
<path d="M1479 3136 c-2 -2 -38 -9 -79 -15 -128 -18 -370 -104 -443 -157 -18
-13 -48 -34 -67 -47 -19 -14 -64 -53 -100 -88 -59 -57 -82 -85 -115 -138 -5
-9 -27 -37 -47 -62 -47 -59 -107 -178 -143 -289 -16 -47 -35 -98 -44 -115 -11
-22 -15 -61 -16 -143 0 -108 1 -115 24 -133 54 -44 111 -9 111 68 0 52 24 184
38 210 7 12 12 29 12 38 0 15 77 181 102 220 7 11 41 63 76 117 107 166 251
265 507 349 111 37 439 56 536 31 24 -6 80 -16 124 -23 44 -6 90 -18 102 -25
12 -8 29 -14 36 -14 8 0 20 -7 27 -15 7 -8 21 -15 31 -15 10 0 42 -16 71 -35
29 -19 81 -53 115 -76 34 -22 88 -69 121 -104 62 -66 152 -186 152 -202 0 -5
11 -24 24 -42 14 -18 37 -68 52 -110 15 -42 31 -81 36 -87 5 -6 13 -49 20 -95
17 -132 26 -159 54 -169 55 -21 104 31 104 110 0 102 -84 336 -174 485 -34 58
-66 95 -185 220 -90 94 -136 130 -230 180 -31 17 -72 40 -91 53 -19 12 -42 22
-50 22 -9 0 -47 13 -85 29 -39 16 -99 34 -135 40 -36 6 -87 15 -115 20 -48 9
-347 15 -356 7z"/>
<path d="M814 2493 c-66 -8 -89 -78 -40 -120 25 -21 35 -22 140 -20 125 2 156
15 156 64 0 64 -103 95 -256 76z"/>
<path d="M1234 2436 c-39 -21 -54 -38 -74 -82 -28 -65 -17 -112 53 -221 36
-57 64 -73 134 -78 52 -4 63 -1 111 28 29 19 71 55 93 82 39 47 40 50 34 104
-4 31 -9 64 -11 73 -7 23 -89 78 -134 90 -56 15 -182 18 -206 4z m169 -148
c20 -7 37 -17 37 -23 -1 -18 -24 -41 -57 -59 -31 -16 -34 -15 -53 4 -25 25
-43 68 -36 86 6 15 53 11 109 -8z"/>
<path d="M1721 2271 c-44 -44 -15 -113 53 -126 43 -9 138 -46 157 -62 36 -30
81 -5 98 55 17 58 -20 86 -169 130 -81 24 -117 25 -139 3z"/>
<path d="M2903 1963 c-28 -5 -53 -39 -53 -73 0 -31 26 -70 46 -70 19 0 244
-223 244 -242 0 -7 9 -30 20 -51 19 -35 19 -38 3 -43 -10 -3 -34 -14 -54 -25
-44 -23 -127 -25 -270 -7 -90 11 -98 10 -130 -8 -21 -13 -37 -32 -43 -52 -6
-22 -42 -63 -105 -123 -91 -86 -131 -114 -154 -106 -16 5 -37 87 -37 147 0
135 -50 186 -120 123 -27 -25 -30 -35 -31 -83 -1 -84 37 -246 73 -319 34 -65
150 -201 173 -201 7 0 18 -7 26 -16 21 -26 99 -76 122 -79 12 -1 42 -10 67
-20 25 -9 75 -22 112 -29 82 -14 95 -24 79 -64 -9 -21 -31 -37 -89 -65 -42
-21 -84 -42 -92 -47 -8 -5 -73 -25 -145 -45 -71 -20 -143 -40 -159 -45 -16 -5
-33 -7 -37 -4 -5 2 -33 -2 -63 -11 -34 -10 -110 -18 -198 -21 -79 -2 -159 -6
-178 -8 -19 -2 -60 0 -90 4 -30 5 -116 11 -190 15 -74 3 -160 9 -190 14 -153
26 -332 61 -348 70 -10 6 -27 8 -38 5 -10 -3 -45 6 -77 20 -32 15 -65 26 -74
26 -24 0 -198 86 -274 135 -81 52 -186 155 -195 190 -3 14 -10 28 -15 31 -34
21 -71 183 -73 321 -2 113 -3 116 -30 139 -53 46 -95 24 -107 -57 -16 -117
-10 -204 22 -316 17 -60 43 -130 57 -156 23 -42 115 -158 154 -194 45 -41 102
-83 112 -83 7 0 21 -9 31 -20 9 -10 52 -33 94 -51 42 -17 90 -39 106 -48 27
-16 68 -29 210 -66 279 -74 386 -91 710 -112 121 -7 390 -9 442 -2 175 23 364
60 403 78 25 11 59 21 76 21 16 0 34 4 40 9 5 5 36 16 69 26 33 10 65 21 70
25 9 7 104 59 179 98 33 17 175 155 198 192 8 14 18 36 21 50 3 14 22 44 41
66 89 105 131 265 127 494 -1 72 -17 133 -69 262 -28 68 -54 109 -118 185 -79
95 -224 224 -248 222 -6 -1 -21 -4 -33 -6z m325 -700 c1 -49 -2 -94 -7 -102
-23 -36 -149 -51 -256 -30 -111 22 -114 22 -149 -1 -18 -13 -43 -42 -55 -66
-13 -23 -50 -68 -82 -100 -55 -52 -62 -56 -84 -46 -33 15 -115 91 -115 107 0
6 21 24 48 38 57 32 137 101 204 177 9 10 24 33 33 50 15 28 20 31 48 26 18
-3 91 -7 162 -7 112 -2 136 1 175 19 76 35 77 34 78 -65z m-248 -275 c40 -8
78 -8 129 -1 70 9 72 9 67 -11 -3 -12 -6 -26 -6 -32 0 -19 -62 -74 -109 -96
-39 -18 -64 -22 -164 -22 -148 0 -157 7 -93 70 26 26 54 60 62 76 16 32 30 34
114 16z"/>
<path d="M299 1866 c-20 -6 -44 -17 -53 -25 -25 -21 -20 -66 11 -90 22 -18 36
-21 97 -17 84 5 71 1 96 28 28 30 25 54 -9 89 -33 32 -75 37 -142 15z"/>
<path d="M360 1646 c-103 -34 -133 -73 -103 -135 26 -52 65 -54 135 -5 29 20
59 43 66 52 20 25 14 59 -14 81 -30 23 -34 24 -84 7z"/>
<path d="M597 999 c-28 -16 -36 -50 -26 -105 21 -110 70 -173 142 -181 43 -5
43 -5 135 85 75 74 92 96 92 120 0 49 -35 78 -87 73 -7 0 -34 -23 -61 -51 -27
-27 -54 -50 -59 -50 -5 0 -15 17 -22 38 -22 62 -39 82 -69 82 -15 0 -35 -5
-45 -11z"/>
<path d="M1567 762 c-30 -32 -35 -72 -12 -112 8 -14 14 -33 15 -43 0 -26 57
-93 90 -107 39 -16 86 -4 141 36 111 81 145 147 102 197 -29 32 -78 16 -151
-50 -19 -18 -39 -30 -43 -27 -5 3 -13 24 -20 47 -13 50 -44 87 -74 87 -12 0
-33 -13 -48 -28z"/>
</g>
</svg>
