<?xml version="1.0" standalone="no"?>
<!DOCTYPE svg PUBLIC "-//W3C//DTD SVG 20010904//EN"
        "http://www.w3.org/TR/2001/REC-SVG-20010904/DTD/svg10.dtd">
<svg version="1.0" xmlns="http://www.w3.org/2000/svg"
     width="546.000000pt" height="424.000000pt" viewBox="0 0 546.000000 424.000000"
     preserveAspectRatio="xMidYMid meet">

    <g transform="translate(0.000000,424.000000) scale(0.100000,-0.100000)"
       fill="#000000" stroke="none">
        <path d="M3210 3769 c-104 -7 -250 -33 -280 -49 -10 -5 -30 -10 -44 -10 -14 0
-60 -16 -102 -35 -41 -19 -79 -35 -83 -35 -4 0 -38 -20 -75 -45 -38 -25 -75
-45 -82 -45 -7 0 -18 -8 -23 -18 -5 -10 -30 -29 -55 -43 -25 -13 -50 -34 -57
-46 -7 -13 -16 -23 -21 -23 -15 0 -98 -82 -98 -97 0 -7 -7 -16 -15 -19 -16 -6
-75 -89 -95 -134 -6 -14 -19 -38 -29 -55 -9 -16 -23 -41 -31 -55 -38 -66 -100
-292 -100 -365 0 -50 -11 -73 -39 -85 -98 -40 -265 -189 -287 -255 -3 -11 -21
-45 -39 -75 -18 -30 -37 -80 -43 -110 -6 -30 -15 -79 -21 -107 -7 -32 -7 -62
-2 -76 17 -45 16 -115 -2 -135 -31 -34 -50 -164 -44 -302 6 -132 28 -227 66
-290 11 -19 26 -46 32 -60 6 -14 17 -36 23 -49 16 -35 150 -170 231 -233 39
-30 103 -72 144 -92 75 -39 217 -86 257 -86 13 0 25 -3 27 -7 5 -8 -66 -121
-110 -177 -29 -36 -30 -89 -3 -116 35 -35 64 -26 117 38 26 31 50 59 53 62 3
3 20 28 39 55 66 96 60 93 149 79 42 -7 100 -17 128 -23 42 -8 405 -26 454
-23 8 0 105 6 215 11 110 6 220 15 245 20 85 18 215 41 255 43 l40 3 17 -65
c24 -96 42 -139 72 -177 32 -40 63 -43 96 -8 20 21 22 31 17 74 -3 28 -14 65
-23 83 -10 18 -21 49 -24 68 -4 19 -11 43 -15 53 -5 13 -2 17 13 17 10 0 31 9
46 21 36 28 37 91 2 114 -27 18 -111 12 -156 -10 -14 -7 -55 -15 -92 -19 -37
-3 -86 -13 -109 -22 -24 -8 -66 -17 -94 -19 -27 -2 -86 -10 -130 -17 -86 -14
-665 -18 -765 -6 -106 13 -186 27 -270 48 -47 11 -105 24 -130 29 -71 15 -195
60 -307 113 -65 30 -205 163 -262 250 -53 80 -69 115 -91 210 -12 52 -11 62 5
98 31 68 39 69 98 10 28 -29 88 -77 132 -106 64 -43 88 -54 121 -54 50 0 84
28 84 70 0 24 -8 35 -41 56 -46 29 -47 40 -6 124 24 49 188 220 234 243 37 20
58 44 73 89 12 33 11 42 -14 100 -15 35 -32 72 -38 83 -14 25 -23 197 -13 260
l7 47 41 -4 c26 -3 75 -24 126 -54 l83 -48 47 25 c36 19 47 30 49 52 2 16 -1
34 -7 41 -13 15 -195 107 -261 131 -25 9 -57 18 -71 20 -15 1 -41 6 -58 10
-18 4 -55 7 -82 7 l-49 -1 6 62 c4 60 17 114 35 149 5 10 9 27 9 38 0 11 9 37
20 57 11 21 20 44 20 52 0 38 100 182 190 272 89 89 123 115 260 200 108 67
95 61 185 87 166 46 257 62 445 74 33 2 181 -12 191 -18 6 -3 42 -10 81 -15
79 -10 180 -42 280 -88 36 -17 70 -31 74 -31 14 0 88 -53 196 -143 87 -72 117
-104 155 -166 25 -42 55 -85 65 -97 10 -11 18 -27 18 -35 0 -9 11 -37 25 -64
37 -74 79 -209 105 -340 7 -33 16 -70 21 -82 4 -12 6 -44 2 -71 -6 -50 8 -87
93 -255 13 -27 24 -54 24 -61 0 -6 9 -27 19 -47 11 -20 23 -54 27 -75 3 -22 9
-43 13 -49 11 -19 41 -180 40 -220 0 -131 -99 -384 -206 -528 -50 -67 -157
-173 -185 -183 -10 -3 -18 -9 -18 -15 0 -5 -22 -20 -49 -34 -58 -29 -61 -33
-63 -80 -3 -84 65 -91 172 -17 170 118 286 250 370 421 51 102 102 252 102
299 0 12 4 25 9 28 5 3 9 14 9 25 0 12 34 54 83 102 80 80 147 164 147 186 0
6 9 28 20 48 11 21 20 49 20 63 0 14 4 30 9 36 17 16 14 194 -5 249 -32 96
-58 140 -117 197 -97 92 -161 109 -356 95 -34 -2 -35 -2 -53 63 -49 170 -61
207 -73 235 -7 17 -16 41 -20 55 -4 14 -14 34 -21 45 -8 11 -14 27 -14 35 0 9
-22 49 -49 88 -27 39 -52 79 -55 89 -13 37 -238 243 -267 243 -5 0 -26 15 -46
33 -21 19 -51 41 -68 49 -85 45 -187 88 -231 99 -27 6 -67 17 -89 24 -56 18
-256 47 -340 49 -38 1 -113 -1 -165 -5z m-998 -1275 c3 -3 1 -22 -4 -42 -5
-20 -11 -86 -12 -147 -3 -103 5 -154 33 -220 34 -80 35 -76 -20 -117 -40 -30
-169 -155 -169 -164 0 -4 -17 -29 -37 -57 -21 -28 -42 -65 -48 -81 -15 -46
-38 -43 -79 10 -38 49 -48 104 -26 142 5 9 19 41 30 71 23 59 88 148 144 198
20 17 36 38 36 46 0 8 -11 39 -24 69 -21 47 -24 68 -22 147 3 111 15 129 97
141 71 10 95 11 101 4z m-334 -191 c-1 -27 3 -70 10 -98 10 -48 10 -51 -19
-80 -16 -17 -29 -34 -29 -37 0 -13 -89 -136 -94 -131 -10 10 -7 118 5 170 6
26 18 62 27 79 9 17 26 48 37 70 22 45 44 74 56 74 5 0 8 -21 7 -47z"/>
        <path d="M3913 3140 c-12 -5 -42 -29 -67 -53 -40 -37 -46 -49 -46 -83 0 -48
14 -64 56 -64 35 0 124 62 144 100 16 30 -4 84 -36 99 -14 6 -26 11 -27 10 -1
0 -12 -4 -24 -9z"/>
        <path d="M2978 3000 c-34 -26 -38 -72 -8 -97 21 -19 164 -72 193 -73 10 0 29
11 42 25 49 48 23 125 -43 125 -12 0 -33 7 -46 15 -12 8 -42 18 -67 21 -36 5
-49 2 -71 -16z"/>
        <path d="M3977 2855 c-76 -52 -83 -135 -14 -188 72 -55 139 -40 177 41 20 43
20 43 1 87 -20 46 -69 85 -106 85 -11 0 -37 -11 -58 -25z"/>
        <path d="M3453 2777 c-91 -25 -111 -35 -146 -79 l-30 -37 18 -56 c15 -49 24
-60 81 -101 79 -57 149 -84 213 -84 44 0 56 5 98 41 64 55 114 135 119 192 4
38 0 50 -22 76 -14 17 -35 36 -47 42 -19 11 -37 13 -164 22 -30 2 -80 -5 -120
-16z m171 -136 l30 -6 -32 -36 c-28 -32 -35 -35 -64 -30 -33 7 -98 41 -98 52
0 21 102 34 164 20z"/>
        <path d="M3005 2739 c-47 -22 -75 -66 -75 -115 0 -28 9 -45 44 -82 41 -43 47
-46 90 -44 86 3 129 41 141 122 6 43 4 47 -32 82 -21 20 -56 41 -78 47 -49 13
-42 14 -90 -10z"/>
        <path d="M3715 2078 c-59 -32 -58 -71 1 -132 42 -42 51 -47 87 -44 47 3 83 42
73 76 -10 31 -62 80 -102 97 -20 8 -37 15 -38 15 0 0 -10 -6 -21 -12z"/>
        <path d="M3512 1984 c-26 -18 -30 -68 -8 -99 7 -11 17 -31 21 -45 4 -14 18
-40 32 -58 22 -29 30 -33 65 -30 31 2 46 10 61 29 21 29 19 37 -36 147 -35 70
-85 91 -135 56z"/>
    </g>
</svg>
