<?xml version="1.0" standalone="no"?>
<!DOCTYPE svg PUBLIC "-//W3C//DTD SVG 20010904//EN"
 "http://www.w3.org/TR/2001/REC-SVG-20010904/DTD/svg10.dtd">
<svg version="1.0" xmlns="http://www.w3.org/2000/svg"
 width="468.000000pt" height="444.000000pt" viewBox="0 0 468.000000 444.000000"
 preserveAspectRatio="xMidYMid meet">

<g transform="translate(0.000000,444.000000) scale(0.100000,-0.100000)"
fill="#000000" stroke="none">
<path d="M2199 4308 c-10 -4 -50 -10 -87 -14 -62 -5 -190 -35 -237 -54 -11 -5
-56 -21 -99 -36 -44 -15 -99 -40 -122 -56 -23 -15 -44 -28 -48 -28 -12 0 -78
-50 -151 -116 -86 -77 -274 -304 -311 -376 -13 -26 -28 -49 -34 -53 -5 -3 -10
-15 -10 -25 0 -10 -11 -40 -25 -66 -14 -26 -25 -57 -25 -70 0 -12 -6 -35 -14
-51 -23 -46 -44 -212 -32 -252 19 -63 87 -79 120 -28 8 12 22 72 30 132 17
122 36 191 66 240 11 18 20 39 20 47 0 8 9 23 19 32 11 10 23 31 26 46 3 16
13 34 21 41 8 7 31 35 49 63 53 78 184 209 298 297 56 43 243 124 347 149 72
18 158 28 260 30 179 3 262 -11 391 -66 31 -13 66 -24 77 -24 11 0 25 -7 32
-15 7 -8 20 -15 29 -16 51 -1 318 -190 415 -293 47 -50 133 -164 175 -231 30
-49 37 -63 68 -135 8 -19 21 -48 29 -63 8 -16 14 -39 14 -51 0 -13 7 -37 16
-54 8 -17 19 -54 23 -82 10 -63 33 -90 77 -90 48 0 67 33 61 102 -6 61 -15
104 -27 133 -5 11 -18 52 -29 91 -12 39 -34 91 -51 115 -16 24 -30 48 -30 52
0 5 -13 28 -30 52 -16 24 -30 47 -30 50 0 13 -106 149 -151 194 -122 120 -217
205 -252 223 -22 10 -60 34 -85 52 -56 39 -173 93 -242 111 -14 4 -43 15 -65
25 -98 44 -251 74 -378 75 -43 0 -87 -3 -98 -7z"/>
<path d="M1459 3391 c-44 -43 -49 -72 -23 -128 39 -80 118 -83 180 -7 20 24
37 55 37 68 0 50 -65 106 -123 106 -24 0 -42 -10 -71 -39z"/>
<path d="M1830 3385 c-38 -28 -48 -42 -60 -86 -11 -37 22 -151 54 -190 11 -14
30 -38 41 -54 35 -50 64 -72 103 -79 68 -11 119 -6 168 15 60 26 192 142 200
175 29 115 -180 243 -402 244 -60 0 -75 -4 -104 -25z m257 -151 c45 -14 85
-29 87 -33 7 -11 -17 -31 -77 -65 -41 -23 -53 -26 -78 -17 -16 6 -42 25 -57
42 -26 32 -54 94 -45 103 8 8 90 -6 170 -30z"/>
<path d="M2464 3216 c-28 -28 -34 -42 -34 -76 0 -36 6 -47 37 -76 54 -50 107
-45 159 15 29 33 30 64 3 108 -43 69 -112 82 -165 29z"/>
<path d="M959 2990 c-9 -5 -36 -42 -59 -82 -24 -40 -62 -101 -86 -135 -24 -34
-44 -67 -44 -73 0 -6 -11 -32 -25 -58 -14 -26 -25 -55 -25 -64 0 -10 -9 -37
-19 -60 -51 -112 -68 -354 -35 -483 8 -33 19 -75 24 -93 4 -18 15 -43 24 -57
9 -13 16 -30 16 -36 0 -7 11 -26 24 -43 l24 -32 -87 -42 c-114 -56 -155 -95
-202 -193 -15 -31 -32 -60 -38 -63 -6 -4 -11 -20 -11 -36 0 -16 -4 -40 -10
-55 -31 -81 -14 -218 37 -295 13 -19 23 -39 23 -43 0 -10 53 -79 86 -112 64
-64 170 -123 284 -159 30 -10 69 -24 85 -31 17 -8 60 -19 96 -24 65 -11 129
-29 129 -37 0 -3 -12 -22 -26 -44 -23 -34 -25 -45 -19 -89 8 -57 26 -85 83
-124 37 -26 41 -27 88 -15 70 18 98 44 123 111 20 54 20 61 6 90 -21 42 -19
49 13 43 15 -3 81 -8 147 -11 66 -3 179 -9 250 -13 215 -11 1524 -6 1569 7 22
6 42 8 45 6 3 -3 -5 -25 -17 -50 -32 -66 -22 -131 29 -181 81 -79 179 -77 255
5 28 30 34 44 34 82 0 52 -22 113 -52 145 l-20 22 54 6 c82 10 151 27 175 42
12 8 29 14 37 14 8 0 49 18 93 41 120 62 224 173 297 317 30 61 44 122 53 240
5 72 0 93 -38 162 -5 8 -15 29 -22 45 -14 31 -87 105 -147 150 -49 37 -106 65
-170 85 -30 10 -55 21 -57 26 -2 5 7 25 19 44 59 96 82 150 95 225 18 107 9
299 -19 375 -11 30 -19 65 -19 78 1 13 -6 36 -14 52 -8 16 -15 37 -15 47 0 29
-55 136 -84 162 -14 14 -26 29 -26 35 -1 18 -104 140 -130 153 -18 9 -30 9
-54 -1 -53 -21 -61 -105 -12 -127 13 -6 29 -21 35 -33 6 -11 27 -40 46 -64 19
-24 35 -48 35 -53 0 -5 -30 -23 -67 -40 l-66 -32 -116 8 c-189 13 -192 13
-215 -20 -56 -77 -155 -185 -215 -235 -72 -59 -127 -100 -135 -100 -3 0 -27
-13 -53 -29 -27 -16 -63 -29 -80 -29 -28 -1 -33 3 -33 22 0 13 -6 42 -14 64
-8 22 -11 43 -8 47 4 4 8 32 9 63 2 72 16 150 32 180 16 31 -4 72 -43 85 -76
25 -140 -104 -136 -278 4 -219 47 -350 151 -463 73 -79 140 -130 229 -173 36
-17 73 -35 82 -40 10 -5 24 -9 33 -9 8 0 34 -9 57 -19 24 -11 81 -25 128 -32
100 -14 120 -24 120 -60 0 -33 -27 -52 -95 -67 -27 -6 -90 -21 -140 -32 -49
-11 -108 -20 -130 -20 -22 0 -62 -7 -90 -16 -39 -13 -106 -17 -315 -19 -146
-1 -271 -3 -277 -4 -7 0 -20 -12 -28 -25 -14 -21 -14 -28 -1 -59 18 -45 41
-57 110 -57 31 0 56 -4 56 -9 0 -5 -21 -26 -46 -47 -37 -32 -46 -47 -51 -80
-13 -99 43 -112 138 -31 34 28 88 72 119 97 31 25 65 53 74 63 15 14 34 17
114 15 54 -1 113 4 132 10 19 6 82 18 140 26 58 8 134 22 170 31 36 8 74 17
85 19 30 5 147 57 170 76 11 8 47 34 80 55 33 22 65 45 70 52 6 6 37 31 69 56
l59 44 62 -22 c83 -30 115 -48 144 -79 14 -14 28 -26 33 -26 20 0 82 -69 105
-117 22 -48 24 -61 18 -139 -8 -124 -51 -207 -163 -319 -47 -47 -92 -85 -100
-85 -7 0 -26 -6 -40 -14 -38 -21 -148 -50 -282 -76 -88 -18 -134 -21 -202 -17
-49 3 -128 1 -176 -4 -48 -6 -195 -12 -327 -14 -132 -3 -348 -7 -480 -10 -132
-3 -306 0 -386 5 -81 6 -238 13 -349 15 -111 3 -206 8 -212 11 -5 3 -37 6 -71
5 -34 0 -87 6 -117 14 -30 8 -76 15 -101 15 -25 0 -49 3 -53 7 -4 5 -49 15
-99 24 -113 20 -168 40 -325 117 -54 27 -84 50 -117 90 -25 30 -45 58 -45 64
0 5 -10 22 -22 39 -20 26 -22 42 -22 124 0 52 5 99 11 107 6 7 16 33 23 56 11
45 81 132 105 132 7 0 18 6 24 14 7 8 31 19 54 25 23 5 61 14 84 20 41 11 43
10 130 -48 48 -32 98 -62 111 -66 12 -3 53 -21 90 -38 37 -17 82 -36 101 -42
37 -11 54 -35 24 -35 -10 0 -30 -10 -45 -23 -15 -12 -39 -30 -53 -40 -35 -25
-36 -89 -1 -112 29 -19 88 -12 113 14 17 17 48 36 149 94 61 35 61 35 143 27
45 -5 96 -13 114 -19 18 -5 70 -12 117 -15 47 -4 137 -11 200 -16 96 -8 118
-7 137 6 29 19 31 72 4 101 -24 25 -87 35 -376 58 -33 3 -85 9 -115 15 -30 5
-71 12 -90 15 -99 16 -197 39 -235 55 -23 10 -131 49 -159 57 -10 3 -37 16
-60 29 -22 13 -66 37 -96 53 -30 16 -71 45 -91 63 -42 39 -129 161 -129 181 0
8 -6 30 -14 49 -13 29 -40 186 -38 213 8 81 23 183 32 212 22 68 51 148 61
163 5 8 16 30 25 48 8 18 46 84 84 147 40 64 70 125 70 140 0 30 -41 75 -67
75 -10 0 -25 -5 -34 -10z m2922 -491 c25 -70 25 -71 42 -139 8 -36 11 -70 7
-75 -5 -6 -33 -19 -62 -30 -69 -26 -196 -26 -259 -1 -24 10 -62 18 -84 18 -33
-1 -45 -7 -67 -33 -16 -18 -28 -39 -28 -47 0 -44 -107 -179 -169 -212 -20 -11
-47 -29 -61 -40 -41 -32 -102 -41 -147 -20 -41 19 -107 79 -135 122 -21 32
-22 38 -7 38 18 0 156 69 212 106 85 57 210 174 268 251 54 73 67 80 104 53
17 -12 182 -13 189 -1 4 6 17 11 29 11 12 0 47 11 77 24 30 13 60 23 65 22 6
-1 17 -22 26 -47z m-221 -393 c104 -16 154 -15 187 2 22 12 83 17 83 6 0 -3
-8 -35 -17 -72 -15 -56 -26 -74 -70 -116 -28 -28 -84 -69 -125 -91 l-73 -39
-115 2 c-132 2 -240 11 -240 20 0 10 43 52 54 52 29 0 184 176 200 228 4 12
10 22 14 22 4 0 50 -7 102 -14z"/>
</g>
</svg>
