<?xml version="1.0" standalone="no"?>
<!DOCTYPE svg PUBLIC "-//W3C//DTD SVG 20010904//EN"
 "http://www.w3.org/TR/2001/REC-SVG-20010904/DTD/svg10.dtd">
<svg version="1.0" xmlns="http://www.w3.org/2000/svg"
 width="406.000000pt" height="408.000000pt" viewBox="0 0 406.000000 408.000000"
 preserveAspectRatio="xMidYMid meet">

<g transform="translate(0.000000,408.000000) scale(0.100000,-0.100000)"
fill="#000000" stroke="none">
<path d="M2375 3958 c-177 -42 -220 -55 -295 -89 -46 -22 -91 -46 -100 -53 -8
-8 -26 -17 -40 -21 -74 -23 -260 -206 -296 -292 -17 -40 -19 -41 -96 -53 -34
-6 -87 -15 -117 -20 -29 -5 -58 -13 -64 -19 -6 -6 -20 -11 -32 -11 -12 0 -52
-16 -91 -35 -38 -19 -74 -35 -80 -35 -6 0 -28 -15 -50 -33 -21 -18 -52 -41
-67 -51 -16 -9 -47 -34 -69 -54 l-40 -36 -62 23 c-104 40 -176 54 -266 52 -82
-2 -86 -3 -112 -33 -37 -42 -60 -93 -61 -134 -1 -34 -2 -34 -46 -34 -36 0 -59
-8 -104 -37 -64 -42 -64 -43 -75 -159 -5 -57 -4 -89 5 -110 7 -16 12 -42 13
-57 0 -15 6 -38 14 -50 8 -12 24 -52 36 -89 12 -36 34 -81 49 -99 23 -27 32
-31 54 -25 34 8 59 45 60 89 0 18 -14 64 -32 102 -40 84 -63 184 -55 236 8 45
31 54 99 39 52 -12 72 -5 104 36 15 19 20 39 19 82 0 32 2 68 6 80 10 29 50
38 100 23 23 -7 56 -16 75 -21 19 -5 41 -16 49 -24 15 -14 13 -18 -11 -44 -40
-42 -35 -82 14 -107 43 -23 72 -6 179 104 118 122 196 184 257 207 27 10 57
23 68 30 44 27 237 80 254 70 5 -3 7 -15 4 -26 -6 -24 46 -80 74 -80 41 0 54
22 108 186 37 113 162 242 295 306 137 65 190 87 226 94 21 3 47 11 56 16 45
23 372 25 408 3 8 -5 38 -12 67 -16 61 -8 240 -94 322 -154 64 -48 130 -114
168 -171 15 -21 32 -43 38 -49 21 -18 75 -122 91 -175 17 -59 52 -100 84 -100
29 0 84 56 77 78 -30 99 -101 241 -158 317 -47 63 -184 205 -198 205 -4 0 -23
14 -42 31 -30 27 -145 89 -164 89 -4 0 -40 16 -81 35 -40 19 -81 35 -91 35
-10 0 -40 7 -68 16 -59 18 -347 27 -410 12z"/>
<path d="M2665 3110 c-69 -7 -141 -37 -170 -70 -16 -18 -20 -34 -18 -87 3 -76
13 -96 92 -172 73 -70 108 -85 164 -70 67 18 98 38 159 101 77 81 88 120 56
201 -21 55 -27 60 -78 83 -57 24 -94 27 -205 14z m146 -146 c18 -11 8 -33 -31
-68 -22 -20 -49 -36 -59 -36 -24 0 -91 61 -91 83 0 11 13 18 38 22 20 4 42 8
47 10 13 4 85 -4 96 -11z"/>
<path d="M3563 3105 c-31 -22 -30 -66 2 -103 22 -26 33 -30 92 -34 115 -8 149
27 99 102 -20 31 -33 40 -55 40 -15 0 -48 3 -72 6 -32 4 -50 1 -66 -11z"/>
<path d="M3112 3103 c-21 -8 -42 -60 -42 -103 0 -101 139 -142 190 -57 30 48
26 96 -11 135 -26 28 -36 32 -77 31 -26 0 -53 -3 -60 -6z"/>
<path d="M2199 3057 c-25 -19 -49 -73 -49 -110 0 -61 83 -111 155 -93 54 14
84 115 49 164 -32 46 -118 68 -155 39z"/>
<path d="M3552 2904 c-19 -13 -22 -23 -20 -57 3 -35 8 -43 43 -63 22 -13 48
-23 57 -24 59 -1 105 68 75 114 -10 15 -30 26 -54 30 -21 3 -47 8 -58 11 -11
3 -30 -2 -43 -11z"/>
<path d="M1259 2744 c-14 -17 -16 -103 -3 -127 22 -40 133 -142 171 -158 33
-14 43 -24 43 -41 0 -29 37 -137 54 -158 6 -8 18 -27 26 -43 12 -25 11 -29 -9
-51 -31 -33 -124 -76 -165 -76 -49 0 -69 28 -74 104 -2 34 0 78 6 98 13 48 -2
76 -56 103 -53 27 -122 93 -122 117 0 11 -11 30 -25 43 -46 46 -115 23 -115
-39 0 -43 33 -95 107 -171 l68 -70 0 -75 c1 -41 5 -84 10 -94 7 -17 5 -18 -18
-12 -15 3 -39 9 -54 12 -16 4 -39 15 -52 25 -13 11 -31 19 -40 19 -18 0 -108
83 -134 124 -9 14 -17 36 -17 50 0 33 -38 96 -64 106 -27 9 -74 -7 -86 -30
-16 -30 -12 -68 18 -143 38 -99 126 -187 242 -244 144 -70 229 -89 340 -77 36
4 79 8 95 10 35 4 97 25 116 41 8 6 25 14 39 18 45 14 199 154 237 216 24 38
51 128 63 204 4 28 10 58 15 67 9 22 -11 141 -30 178 -8 15 -28 33 -44 40 -26
10 -35 10 -55 -4 -30 -19 -43 -73 -27 -117 19 -55 15 -93 -27 -249 l-15 -54
-22 28 c-32 40 -46 95 -39 149 10 68 -9 90 -96 117 -59 18 -76 29 -110 68 -22
26 -40 52 -40 58 0 19 -46 54 -72 54 -14 0 -31 -7 -39 -16z"/>
<path d="M3554 2665 c-15 -23 -15 -36 -5 -113 21 -164 23 -207 11 -267 -6 -33
-14 -76 -17 -95 -3 -19 -11 -42 -18 -50 -6 -8 -35 -54 -64 -102 -29 -47 -67
-100 -84 -116 -18 -17 -61 -60 -97 -96 -35 -36 -68 -66 -72 -66 -4 0 -43 -29
-87 -65 -44 -36 -84 -65 -90 -65 -5 0 -22 -11 -38 -24 -52 -43 -106 -76 -125
-76 -11 0 -45 -15 -76 -33 -31 -18 -68 -37 -82 -41 -53 -17 -190 -37 -310 -46
-276 -22 -430 -24 -535 -8 -38 6 -86 12 -106 13 -20 2 -45 7 -55 13 -10 5 -40
12 -65 15 -25 4 -59 13 -75 21 -31 16 -102 42 -194 71 -64 20 -84 28 -203 86
-48 23 -90 46 -94 52 -3 5 -31 25 -62 44 -56 35 -282 256 -303 297 -6 12 -31
44 -55 72 -23 28 -43 58 -43 67 0 8 -13 41 -30 72 -16 31 -30 63 -30 71 0 19
-32 34 -73 34 -26 0 -39 -6 -51 -25 -15 -23 -15 -29 -1 -77 23 -75 69 -164
120 -233 25 -33 45 -63 45 -67 0 -4 29 -40 65 -79 61 -67 79 -99 54 -99 -16 0
-146 -123 -175 -166 -45 -66 -45 -68 -59 -296 l-7 -107 28 -26 c16 -15 42 -32
59 -39 40 -17 105 -90 105 -119 0 -29 44 -94 70 -102 10 -3 36 -1 57 4 58 17
137 13 185 -8 27 -12 65 -44 103 -86 33 -37 70 -78 82 -91 14 -15 33 -24 51
-24 16 0 48 -6 73 -14 24 -7 80 -21 124 -31 123 -26 162 -46 432 -222 71 -46
128 -78 340 -187 31 -17 56 -19 153 -18 160 3 263 20 335 53 33 16 68 29 77
29 18 0 124 60 179 100 18 14 54 46 80 73 45 46 60 76 161 322 42 102 70 139
140 185 21 14 38 28 38 32 0 4 16 24 36 45 45 47 70 91 97 168 18 53 21 87 23
280 2 121 -1 240 -6 265 -6 34 -5 50 6 65 8 11 32 45 54 75 22 30 51 80 65
110 14 30 30 57 36 60 5 4 18 32 29 64 35 99 37 321 4 484 -12 63 -97 87 -130
37z m-2682 -1012 c9 -20 118 -100 186 -136 139 -74 207 -106 224 -107 17 0 57
-14 208 -70 86 -32 190 -59 270 -70 112 -15 119 -18 141 -65 11 -24 29 -51 40
-61 10 -9 19 -26 19 -36 0 -32 70 -88 109 -88 61 0 78 50 37 111 -14 20 -28
48 -32 63 -3 14 -10 29 -15 32 -27 16 10 22 193 28 112 4 236 14 277 22 90 17
100 11 108 -60 3 -27 13 -52 25 -63 24 -22 83 -20 109 3 17 15 19 26 13 73 -3
31 -10 64 -15 73 -9 17 4 24 183 108 49 23 102 55 140 85 14 11 36 27 48 35
13 8 43 30 67 48 24 17 50 32 58 32 18 0 29 -41 20 -72 -9 -27 -85 -102 -125
-123 -16 -8 -53 -38 -82 -66 -29 -28 -71 -63 -93 -78 -22 -14 -45 -37 -51 -49
-6 -12 -18 -30 -27 -39 -22 -25 -71 -129 -86 -183 -32 -115 -130 -254 -225
-319 -85 -59 -264 -51 -424 19 -51 22 -104 40 -118 40 -32 0 -64 -33 -64 -66
0 -33 59 -94 92 -94 12 0 46 -12 73 -26 96 -50 278 -72 380 -47 71 17 172 71
216 115 57 58 139 164 139 181 0 7 11 28 25 47 14 19 25 42 25 51 0 10 4 20 9
24 5 3 13 20 17 38 3 17 15 48 25 67 11 19 19 39 19 45 0 19 134 146 240 228
19 14 51 40 72 57 l36 30 -5 -42 c-2 -24 -11 -56 -18 -73 -45 -103 -58 -124
-93 -148 -87 -61 -222 -238 -222 -293 0 -11 -4 -24 -9 -29 -5 -6 -28 -57 -51
-115 -38 -94 -47 -109 -93 -145 -85 -67 -141 -105 -158 -105 -9 0 -37 -9 -61
-20 -80 -35 -178 -53 -295 -55 -83 0 -120 3 -142 15 -17 8 -70 35 -118 59 -48
24 -97 52 -108 62 -11 9 -40 27 -65 40 -25 12 -60 35 -78 51 -18 15 -37 28
-43 28 -6 0 -28 15 -50 34 -22 18 -70 45 -107 60 -37 15 -81 34 -98 42 -36 18
-90 33 -159 44 -97 15 -109 22 -117 66 -11 64 -3 77 45 71 23 -3 80 -18 127
-35 47 -16 112 -38 145 -48 50 -15 148 -62 191 -92 111 -75 130 -81 164 -54
16 13 23 29 22 50 -1 59 -36 88 -197 166 -138 68 -359 150 -395 148 -22 -1
-122 20 -142 30 -10 5 -18 19 -18 32 0 13 -21 52 -47 88 -57 79 -113 108 -206
108 l-57 0 0 36 c0 19 -9 54 -19 78 -23 50 -102 126 -131 126 -32 0 -24 16 26
55 43 32 88 45 96 28z m-176 -219 c18 -3 34 -15 42 -32 16 -35 16 -40 -13 -97
-18 -34 -24 -58 -19 -77 7 -34 -3 -35 -50 -7 -33 19 -36 25 -36 67 0 26 3 71
6 100 7 56 11 58 70 46z m316 -255 c10 -5 34 -44 54 -87 20 -42 40 -78 45 -80
5 -2 9 -10 9 -17 0 -10 -18 -6 -67 16 -36 16 -92 32 -124 36 -64 6 -69 12 -69
95 0 36 4 48 18 51 23 6 113 -3 134 -14z"/>
<path d="M615 795 c-5 -2 -22 -6 -36 -9 -30 -6 -125 -69 -152 -99 -58 -66 -40
-160 48 -250 65 -66 108 -83 186 -72 156 20 248 147 202 280 -21 64 -98 140
-150 148 -40 7 -81 8 -98 2z m82 -150 c23 -16 37 -57 28 -84 -3 -10 -20 -26
-39 -36 -48 -26 -99 -14 -126 30 -12 19 -19 39 -15 45 9 14 96 59 115 60 9 0
25 -7 37 -15z"/>
<path d="M1030 553 c-28 -10 -60 -47 -60 -68 0 -12 9 -34 21 -49 19 -25 26
-27 82 -24 56 3 62 5 71 29 25 72 -42 138 -114 112z"/>
</g>
</svg>
