<?xml version="1.0" standalone="no"?>
<!DOCTYPE svg PUBLIC "-//W3C//DTD SVG 20010904//EN"
 "http://www.w3.org/TR/2001/REC-SVG-20010904/DTD/svg10.dtd">
<svg version="1.0" xmlns="http://www.w3.org/2000/svg"
 width="404.000000pt" height="374.000000pt" viewBox="0 0 404.000000 374.000000"
 preserveAspectRatio="xMidYMid meet">

<g transform="translate(0.000000,374.000000) scale(0.100000,-0.100000)"
fill="#000000" stroke="none">
<path d="M2196 3509 c-32 -25 -34 -64 -6 -118 18 -37 63 -81 81 -81 4 0 21 12
38 26 37 31 40 68 11 132 -28 61 -77 78 -124 41z"/>
<path d="M2463 3508 c-32 -16 -56 -73 -50 -120 10 -75 66 -102 112 -52 45 48
42 134 -7 168 -26 18 -26 18 -55 4z"/>
<path d="M1883 3406 c-28 -6 -55 -14 -59 -18 -4 -5 -20 -8 -35 -8 -15 0 -34
-7 -42 -15 -8 -7 -28 -17 -43 -20 -79 -18 -168 -70 -284 -169 -37 -31 -180
-201 -180 -214 0 -6 -13 -32 -29 -59 -16 -26 -35 -73 -41 -103 -7 -30 -18 -62
-26 -70 -7 -8 -14 -43 -16 -76 l-3 -62 -45 -4 c-38 -4 -84 -23 -227 -97 -10
-5 -29 -14 -43 -20 -76 -35 -242 -185 -327 -294 -54 -70 -145 -244 -178 -342
-49 -147 -51 -338 -5 -470 26 -73 98 -224 117 -247 13 -15 11 -18 -19 -31 -65
-28 -84 -38 -136 -70 -72 -44 -151 -122 -158 -155 -3 -15 -10 -46 -16 -69 -9
-36 -8 -45 11 -71 29 -41 81 -79 130 -94 l41 -13 0 -63 c0 -76 15 -109 71
-153 47 -37 107 -56 224 -72 122 -17 413 -12 445 8 5 3 28 9 52 14 107 23 240
67 327 107 26 13 42 14 75 6 74 -19 97 -23 200 -33 265 -25 606 -12 831 32
241 47 596 197 685 289 14 14 42 38 63 54 33 24 44 27 80 22 24 -4 81 0 132 9
71 13 108 26 174 63 46 26 100 63 120 82 46 45 109 169 122 240 25 144 33 309
15 338 -3 5 -17 53 -31 108 -26 98 -84 216 -145 294 -15 19 -34 49 -43 66 -9
17 -53 69 -97 115 l-82 84 2 115 c5 258 -58 459 -206 667 -48 67 -128 153
-143 153 -5 0 -35 22 -66 48 -77 66 -202 128 -354 178 -91 29 -135 8 -129 -62
2 -31 9 -41 33 -53 17 -8 38 -18 48 -23 10 -5 41 -13 69 -18 44 -9 108 -43
198 -107 13 -10 36 -23 50 -29 31 -15 159 -138 184 -179 11 -16 25 -34 33 -38
7 -4 13 -14 13 -21 0 -15 15 -46 42 -86 38 -57 75 -243 83 -410 10 -210 9
-207 86 -287 67 -71 159 -181 159 -192 0 -4 8 -16 18 -27 9 -11 26 -37 37 -58
22 -44 26 -41 -83 -88 -71 -31 -128 -35 -194 -15 -37 11 -85 14 -135 8 -7 0
-22 -20 -34 -43 -42 -84 -123 -185 -191 -239 -38 -30 -78 -55 -88 -57 -27 -5
-41 29 -42 101 -1 91 -13 132 -43 145 -36 16 -39 16 -75 -15 l-32 -27 6 -75
c7 -77 30 -189 46 -226 5 -11 15 -36 23 -55 13 -34 76 -114 145 -188 18 -19
40 -55 49 -82 16 -45 16 -50 -1 -93 -14 -38 -29 -54 -79 -87 -34 -22 -80 -45
-102 -51 -22 -5 -51 -15 -65 -21 -14 -6 -38 -14 -55 -19 -16 -4 -61 -19 -100
-33 -38 -14 -85 -26 -103 -26 -31 0 -50 -3 -173 -31 -180 -40 -722 -20 -874
33 -16 5 -48 14 -70 19 -22 4 -53 11 -70 14 -16 4 -55 18 -85 32 -30 14 -72
32 -93 39 -21 7 -51 23 -67 34 -16 11 -54 32 -84 46 -29 13 -60 31 -66 39 -33
40 -100 2 -100 -55 0 -25 64 -98 100 -114 8 -3 29 -15 45 -26 33 -22 31 -21
125 -57 36 -14 76 -30 90 -36 l25 -10 -30 -7 c-16 -5 -64 -18 -105 -29 -201
-58 -521 -55 -612 5 -21 13 -38 28 -38 33 0 5 9 30 20 56 34 79 26 102 -47
139 -18 9 -44 16 -58 16 -35 0 -95 29 -95 45 0 20 75 77 170 129 47 26 93 52
103 59 16 10 23 7 51 -25 40 -45 92 -69 124 -57 28 10 47 50 38 81 -5 22 -83
111 -103 119 -13 5 -83 103 -83 116 0 5 -11 24 -25 43 -13 18 -32 56 -40 84
-9 28 -20 58 -25 67 -19 36 -31 142 -25 231 5 73 14 112 42 183 46 117 97 209
146 265 61 69 163 173 194 196 64 49 236 137 299 153 27 7 65 19 85 26 44 17
88 19 321 16 181 -2 187 -1 207 20 42 45 16 89 -68 113 -39 12 -99 16 -213 16
-114 0 -158 3 -158 12 0 57 112 293 156 327 13 10 24 23 24 28 0 13 121 117
175 150 105 66 236 111 350 120 82 7 90 10 104 34 18 32 8 74 -22 93 -30 19
-111 24 -174 12z m1843 -1813 c3 -16 10 -44 15 -63 5 -19 9 -61 9 -93 0 -55
-1 -58 -32 -71 -79 -33 -104 -37 -174 -25 -149 24 -141 25 -179 -16 -19 -20
-35 -41 -35 -47 0 -17 -80 -101 -119 -125 -20 -13 -55 -32 -78 -44 l-42 -21
-45 37 c-25 20 -48 45 -51 55 -3 10 -12 21 -20 24 -20 7 -19 36 0 36 40 0 265
189 265 222 0 6 14 26 30 45 17 18 30 39 30 45 0 7 18 9 58 3 109 -14 212 1
305 44 55 25 56 25 63 -6z m-16 -394 c0 -17 -37 -79 -69 -114 -70 -79 -94 -88
-264 -107 -74 -8 -105 -7 -127 2 l-29 12 72 56 c74 59 110 93 139 135 17 24
20 25 148 23 71 0 130 -4 130 -7z"/>
<path d="M1553 2945 c-29 -12 -33 -19 -33 -53 0 -65 19 -75 163 -78 112 -2
124 0 145 19 28 26 28 66 1 101 -20 25 -23 26 -132 26 -74 -1 -123 -6 -144
-15z"/>
<path d="M2008 2935 c-26 -9 -54 -25 -63 -37 -25 -36 -19 -99 16 -164 36 -70
58 -95 118 -135 81 -53 189 -32 288 58 37 34 43 44 49 94 6 53 4 58 -26 92
-34 39 -146 98 -182 96 -13 -1 -52 1 -88 5 -45 4 -79 1 -112 -9z m139 -139
c28 -8 54 -12 56 -10 7 7 57 -15 57 -25 0 -12 -63 -51 -83 -51 -21 0 -87 63
-87 84 0 9 1 16 3 16 1 0 25 -6 54 -14z"/>
<path d="M2536 2737 c-32 -32 -33 -60 -3 -88 30 -29 79 -59 96 -59 8 0 37 -16
65 -35 63 -43 106 -53 129 -30 23 22 21 77 -3 108 -21 26 -110 81 -170 105
-67 26 -87 26 -114 -1z"/>
<path d="M1860 2517 c-20 -10 -25 -20 -25 -52 0 -36 4 -42 35 -57 19 -9 69
-24 110 -33 102 -23 211 -60 295 -100 39 -19 82 -37 98 -41 15 -3 30 -10 33
-15 10 -16 54 -9 84 13 54 40 35 108 -35 123 -16 4 -50 17 -75 30 -59 30 -248
105 -266 105 -8 0 -25 6 -37 14 -32 20 -185 30 -217 13z"/>
<path d="M859 2179 c-18 -18 -21 -29 -16 -75 3 -29 12 -66 21 -81 8 -15 19
-42 24 -59 20 -62 60 -113 94 -119 50 -9 69 2 183 108 92 86 105 103 105 131
0 33 -33 76 -59 76 -25 0 -75 -33 -129 -86 -62 -61 -62 -61 -88 26 -10 30 -26
65 -37 78 -26 28 -70 29 -98 1z"/>
<path d="M2140 1822 c-41 -20 -49 -48 -27 -95 9 -18 25 -67 37 -111 23 -85 43
-111 97 -122 52 -10 76 2 152 74 87 82 111 117 111 159 0 58 -80 96 -116 56
-8 -10 -31 -40 -51 -66 -44 -61 -64 -59 -79 8 -13 62 -29 91 -54 105 -25 13
-29 13 -70 -8z"/>
<path d="M1130 1243 c-14 -18 -19 -34 -15 -48 20 -61 18 -70 -22 -95 -59 -39
-58 -98 2 -127 32 -15 37 -15 77 0 42 17 57 12 58 -19 0 -22 49 -64 74 -64 40
0 64 40 58 99 -4 47 -2 52 28 77 39 33 51 62 37 92 -16 34 -82 42 -139 18 -13
-6 -20 -2 -27 17 -13 35 -61 77 -88 77 -12 0 -31 -12 -43 -27z"/>
</g>
</svg>
